# Blender v2.75 (sub 0) OBJ File: ''
# www.blender.org
mtllib table.mtl
o table
v 1.415248 1.508083 0.938925
v -1.404925 1.505431 0.941809
v 0.710046 1.507472 0.924389
v 1.414613 1.508290 0.877895
v 0.004844 1.506860 0.909852
v -0.700349 1.506249 0.895312
v -1.405714 1.600161 0.942132
v 1.414447 1.602813 0.939247
v 0.709249 1.602201 0.924708
v -1.406344 1.600368 0.881090
v -0.701146 1.600979 0.895629
v 1.413818 1.603020 0.878218
v -1.405543 1.505638 0.880772
v 0.004137 1.554329 0.879495
v 0.004767 1.554122 0.940528
v 0.004051 1.601590 0.910169
v -1.455888 0.000000 -0.955092
v -1.413127 0.526954 -0.956463
v -1.367856 0.000295 -0.954789
v -1.458398 1.619866 -0.958136
v -1.370368 1.620161 -0.957840
v -1.458722 1.620250 -0.863409
v -1.413450 0.527336 -0.861734
v -1.370690 1.620540 -0.863109
v -1.456210 0.000383 -0.860359
v -1.368181 0.000674 -0.860062
v -1.369274 0.527291 -0.908951
v -1.457305 0.526999 -0.909251
v 1.415248 1.508083 -0.938925
v 0.710046 1.507472 -0.924389
v -1.404925 1.505431 -0.941810
v 1.414613 1.508290 -0.877895
v -0.700349 1.506249 -0.895312
v 0.004844 1.506860 -0.909852
v -1.405714 1.600161 -0.942132
v 0.709249 1.602201 -0.924708
v 1.414447 1.602813 -0.939247
v -1.406344 1.600368 -0.881090
v 1.413818 1.603020 -0.878218
v -0.701146 1.600979 -0.895630
v 0.004137 1.554329 -0.879495
v -1.405543 1.505638 -0.880772
v 0.004767 1.554122 -0.940528
v 0.004051 1.601590 -0.910169
v 1.455888 -0.000000 0.955092
v 1.413127 0.526955 0.956463
v 1.367856 0.000295 0.954789
v 1.458398 1.619866 0.958136
v 1.370368 1.620161 0.957840
v 1.458722 1.620250 0.863409
v 1.413450 0.527336 0.861734
v 1.370690 1.620540 0.863109
v 1.456210 0.000383 0.860359
v 1.368181 0.000674 0.860062
v 1.369274 0.527291 0.908951
v 1.457305 0.526999 0.909251
v -1.455888 -0.000000 0.955092
v -1.367856 0.000295 0.954789
v -1.413127 0.526955 0.956463
v -1.458398 1.619866 0.958136
v -1.370368 1.620161 0.957840
v -1.458722 1.620250 0.863409
v -1.370690 1.620540 0.863109
v -1.413450 0.527336 0.861734
v -1.456210 0.000383 0.860359
v -1.368181 0.000674 0.860062
v -1.369274 0.527291 0.908951
v -1.457305 0.526999 0.909251
v 1.442883 1.508083 -0.895082
v 1.445768 1.505431 0.888553
v 1.428347 1.507472 -0.449073
v 1.381854 1.508290 -0.894680
v 1.413810 1.506860 -0.003064
v 1.399270 1.506249 0.442940
v 1.446090 1.600161 0.889052
v 1.443206 1.602813 -0.894575
v 1.428666 1.602201 -0.448569
v 1.385048 1.600368 0.889450
v 1.399588 1.600979 0.443444
v 1.382177 1.603020 -0.894177
v 1.384730 1.505638 0.888943
v 1.383453 1.554329 -0.002617
v 1.444487 1.554122 -0.003015
v 1.414127 1.601590 -0.002562
v -1.442883 1.508083 -0.895082
v -1.428347 1.507472 -0.449073
v -1.445768 1.505431 0.888553
v -1.381854 1.508290 -0.894680
v -1.399270 1.506249 0.442940
v -1.413810 1.506860 -0.003064
v -1.446090 1.600161 0.889052
v -1.428666 1.602201 -0.448569
v -1.443206 1.602813 -0.894575
v -1.385048 1.600368 0.889450
v -1.382177 1.603020 -0.894177
v -1.399588 1.600979 0.443444
v -1.383453 1.554329 -0.002617
v -1.384730 1.505638 0.888943
v -1.444487 1.554122 -0.003015
v -1.414127 1.601590 -0.002562
v 1.455888 0.000000 -0.955092
v 1.367856 0.000295 -0.954789
v 1.413127 0.526954 -0.956463
v 1.458398 1.619866 -0.958136
v 1.370368 1.620161 -0.957840
v 1.458722 1.620250 -0.863409
v 1.370690 1.620540 -0.863109
v 1.413450 0.527336 -0.861734
v 1.456210 0.000383 -0.860359
v 1.368181 0.000674 -0.860062
v 1.369274 0.527291 -0.908951
v 1.457305 0.526999 -0.909251
v -1.500000 1.700000 1.000000
v -1.500000 1.700000 -1.000000
v 1.500000 1.700000 -1.000000
v -1.500000 1.590000 1.000000
v 1.500000 1.590000 1.000000
v 1.500000 1.590000 -1.000000
v 1.500000 1.700000 1.000000
v -1.500000 1.590000 -1.000000
vt 0.951842 0.011780
vt 0.960967 0.100223
vt 0.951842 0.365551
vt 0.988311 0.011780
vt 0.979186 0.277108
vt 0.970061 0.188665
vt 0.988311 0.365551
vt 0.439131 0.355327
vt 0.637745 0.372265
vt 0.439131 0.389203
vt 0.836360 0.355327
vt 0.836360 0.389203
vt 0.875423 0.302133
vt 0.875423 0.333323
vt 0.911893 0.302133
vt 0.911893 0.333323
vt 0.028416 0.454124
vt 0.677330 0.978709
vt 0.028416 0.978709
vt 0.677330 0.454124
vt 0.930285 0.456904
vt 0.884048 0.878559
vt 0.930285 0.878559
vt 0.751408 0.961449
vt 0.706981 0.462448
vt 0.751408 0.462448
vt 0.706981 0.961449
vt 0.884048 0.456904
vn -0.000900 1.000000 0.003400
vn 0.000900 -1.000000 -0.003400
vn 0.001000 -0.003400 1.000000
vn 0.001000 -0.003300 1.000000
vn -0.001000 0.003400 -1.000000
vn 0.003400 -0.002900 -1.000000
vn 0.003400 -0.001400 -1.000000
vn -0.003400 0.001400 1.000000
vn -0.003400 0.002900 1.000000
vn 0.003300 -1.000000 0.004100
vn 0.003300 -1.000000 0.004000
vn 1.000000 0.002400 0.003400
vn 1.000000 0.001200 0.003400
vn -1.000000 -0.002400 -0.003400
vn -1.000000 -0.001200 -0.003400
vn -0.008700 -0.001900 -1.000000
vn 0.015300 -0.001900 -0.999900
vn 0.008800 0.001900 1.000000
vn -0.015300 0.001900 0.999900
vn 0.999900 0.001600 0.012800
vn 1.000000 0.001500 -0.005800
vn -1.000000 -0.001500 0.005800
vn -0.999900 -0.001600 -0.012800
vn -0.000900 1.000000 -0.003400
vn 0.000900 -1.000000 0.003400
vn 0.001000 -0.003400 -1.000000
vn 0.001000 -0.003300 -1.000000
vn -0.001000 0.003400 1.000000
vn -0.003500 -0.002900 1.000000
vn -0.003400 -0.001400 1.000000
vn 0.003400 0.001400 -1.000000
vn 0.003400 0.002900 -1.000000
vn -0.003300 -1.000000 -0.004100
vn -0.003300 -1.000000 -0.004000
vn -1.000000 0.002400 -0.003400
vn -1.000000 0.001200 -0.003400
vn 1.000000 -0.002400 0.003400
vn 1.000000 -0.001200 0.003400
vn 0.008700 -0.001900 1.000000
vn -0.015300 -0.001900 0.999900
vn -0.008800 0.001900 -1.000000
vn 0.015300 0.001900 -0.999900
vn -0.999900 0.001600 -0.012800
vn -1.000000 0.001500 0.005800
vn 1.000000 -0.001500 -0.005800
vn 0.999900 -0.001600 0.012800
vn 0.003500 -0.002900 1.000000
vn 0.003400 -0.001400 1.000000
vn -0.003400 0.001400 -1.000000
vn -0.003400 0.002900 -1.000000
vn 0.003300 -1.000000 -0.004100
vn 0.003300 -1.000000 -0.004000
vn 1.000000 0.002400 -0.003400
vn 1.000000 0.001200 -0.003400
vn -1.000000 -0.002400 0.003400
vn -1.000000 -0.001200 0.003400
vn -0.008700 -0.001900 1.000000
vn 0.015300 -0.001900 0.999900
vn 0.008800 0.001900 -1.000000
vn -0.015300 0.001900 -0.999900
vn 0.999900 0.001600 -0.012800
vn 1.000000 0.001500 0.005800
vn -1.000000 -0.001500 -0.005800
vn -0.999900 -0.001600 0.012800
vn 0.003400 1.000000 0.001500
vn -0.003400 -1.000000 -0.001500
vn 1.000000 -0.003400 -0.001600
vn 1.000000 -0.003300 -0.001600
vn -1.000000 0.003400 0.001600
vn -0.003400 1.000000 0.001500
vn 0.003400 -1.000000 -0.001500
vn -1.000000 -0.003400 -0.001600
vn -1.000000 -0.003300 -0.001600
vn 1.000000 0.003400 0.001600
vn -0.003400 -0.002900 -1.000000
vn -0.003400 -0.001400 -1.000000
vn 0.003400 0.001400 1.000000
vn 0.003400 0.002900 1.000000
vn -0.003300 -1.000000 0.004100
vn -0.003300 -1.000000 0.004000
vn -1.000000 0.002400 0.003400
vn -1.000000 0.001200 0.003400
vn 1.000000 -0.002400 -0.003400
vn 1.000000 -0.001200 -0.003400
vn 0.008700 -0.001900 -1.000000
vn -0.015300 -0.001900 -0.999900
vn -0.008800 0.001900 1.000000
vn 0.015300 0.001900 0.999900
vn -0.999900 0.001600 0.012800
vn -1.000000 0.001500 -0.005800
vn 1.000000 -0.001500 0.005800
vn 0.999900 -0.001600 -0.012800
vn 0.000000 1.000000 0.000000
vn 0.000000 -1.000000 -0.000000
vn -1.000000 0.000000 0.000000
vn 0.000000 0.000000 1.000000
vn 0.000000 0.000000 -1.000000
vn 1.000000 -0.000000 0.000000
usemtl table
s 1
f 1/1/1 3/2/1 2/3/1
f 4/4/1 6/5/1 5/6/1
f 7/4/2 9/5/2 8/7/2
f 10/1/2 12/3/2 11/2/2
f 4/1/3 14/6/3 13/3/4
f 12/4/3 10/7/4 14/6/3
f 8/1/5 15/6/5 7/3/5
f 1/4/5 2/7/5 15/6/5
f 1/1/1 4/4/1 3/2/1
f 5/6/1 6/5/1 2/3/1
f 7/4/2 11/2/2 16/6/2
f 16/6/2 12/3/2 9/5/2
f 4/1/3 12/4/3 14/6/3
f 14/6/3 10/7/4 13/3/4
f 15/6/5 8/1/5 1/4/5
f 15/6/5 2/7/5 7/3/5
f 3/2/1 4/4/1 5/6/1
f 3/2/1 5/6/1 2/3/1
f 6/5/1 13/7/1 2/3/1
f 4/4/1 13/7/1 6/5/1
f 7/4/2 10/1/2 11/2/2
f 11/2/2 12/3/2 16/6/2
f 9/5/2 12/3/2 8/7/2
f 7/4/2 16/6/2 9/5/2
f 17/8/6 18/9/6 19/10/6
f 20/11/7 21/12/7 18/9/7
f 22/12/8 23/9/8 24/11/8
f 25/10/9 26/8/9 23/9/9
f 25/13/10 17/14/11 26/15/11
f 17/14/11 19/16/11 26/15/11
f 19/12/12 27/9/12 26/11/12
f 21/10/13 24/8/13 27/9/13
f 25/8/14 28/9/14 17/10/14
f 22/11/15 20/12/15 28/9/15
f 17/8/16 20/11/16 18/9/16
f 18/9/17 21/12/17 19/10/17
f 22/12/18 25/10/18 23/9/18
f 23/9/19 26/8/19 24/11/19
f 19/12/20 21/10/20 27/9/20
f 27/9/21 24/8/21 26/11/21
f 25/8/22 22/11/22 28/9/22
f 28/9/23 20/12/23 17/10/23
f 29/1/24 31/3/24 30/2/24
f 32/4/24 34/6/24 33/5/24
f 35/4/25 37/7/25 36/5/25
f 38/1/25 40/2/25 39/3/25
f 32/1/26 42/3/27 41/6/26
f 39/4/26 41/6/26 38/7/27
f 37/1/28 35/3/28 43/6/28
f 29/4/28 43/6/28 31/7/28
f 29/1/24 30/2/24 32/4/24
f 34/6/24 31/3/24 33/5/24
f 35/4/25 44/6/25 40/2/25
f 44/6/25 36/5/25 39/3/25
f 32/1/26 41/6/26 39/4/26
f 41/6/26 42/3/27 38/7/27
f 37/1/28 43/6/28 29/4/28
f 43/6/28 35/3/28 31/7/28
f 30/2/24 34/6/24 32/4/24
f 30/2/24 31/3/24 34/6/24
f 33/5/24 31/3/24 42/7/24
f 32/4/24 33/5/24 42/7/24
f 35/4/25 40/2/25 38/1/25
f 40/2/25 44/6/25 39/3/25
f 36/5/25 37/7/25 39/3/25
f 35/4/25 36/5/25 44/6/25
f 45/8/29 46/9/29 47/10/29
f 48/11/30 49/12/30 46/9/30
f 50/12/31 51/9/31 52/11/31
f 53/10/32 54/8/32 51/9/32
f 53/13/33 45/14/34 54/15/34
f 45/14/34 47/16/34 54/15/34
f 47/12/35 55/9/35 54/11/35
f 49/10/36 52/8/36 55/9/36
f 53/8/37 56/9/37 45/10/37
f 50/11/38 48/12/38 56/9/38
f 45/8/39 48/11/39 46/9/39
f 46/9/40 49/12/40 47/10/40
f 50/12/41 53/10/41 51/9/41
f 51/9/42 54/8/42 52/11/42
f 47/12/43 49/10/43 55/9/43
f 55/9/44 52/8/44 54/11/44
f 53/8/45 50/11/45 56/9/45
f 56/9/46 48/12/46 45/10/46
f 57/8/47 58/10/47 59/9/47
f 60/11/48 59/9/48 61/12/48
f 62/12/49 63/11/49 64/9/49
f 65/10/50 64/9/50 66/8/50
f 65/13/51 66/15/52 57/14/52
f 57/14/52 66/15/52 58/16/52
f 58/12/53 66/11/53 67/9/53
f 61/10/54 67/9/54 63/8/54
f 65/8/55 57/10/55 68/9/55
f 62/11/56 68/9/56 60/12/56
f 57/8/57 59/9/57 60/11/57
f 59/9/58 58/10/58 61/12/58
f 62/12/59 64/9/59 65/10/59
f 64/9/60 63/11/60 66/8/60
f 58/12/61 67/9/61 61/10/61
f 67/9/62 66/11/62 63/8/62
f 65/8/63 68/9/63 62/11/63
f 68/9/64 57/10/64 60/12/64
f 69/1/65 71/2/65 70/3/65
f 72/4/65 74/5/65 73/6/65
f 75/4/66 77/5/66 76/7/66
f 78/1/66 80/3/66 79/2/66
f 72/1/67 82/6/67 81/3/68
f 80/4/67 78/7/68 82/6/67
f 76/1/69 83/6/69 75/3/69
f 69/4/69 70/7/69 83/6/69
f 69/1/65 72/4/65 71/2/65
f 73/6/65 74/5/65 70/3/65
f 75/4/66 79/2/66 84/6/66
f 84/6/66 80/3/66 77/5/66
f 72/1/67 80/4/67 82/6/67
f 82/6/67 78/7/68 81/3/68
f 76/1/69 69/4/69 83/6/69
f 83/6/69 70/7/69 75/3/69
f 71/2/65 72/4/65 73/6/65
f 71/2/65 73/6/65 70/3/65
f 74/5/65 81/7/65 70/3/65
f 72/4/65 81/7/65 74/5/65
f 75/4/66 78/1/66 79/2/66
f 79/2/66 80/3/66 84/6/66
f 77/5/66 80/3/66 76/7/66
f 75/4/66 84/6/66 77/5/66
f 85/1/70 87/3/70 86/2/70
f 88/4/70 90/6/70 89/5/70
f 91/4/71 93/7/71 92/5/71
f 94/1/71 96/2/71 95/3/71
f 88/1/72 98/3/73 97/6/72
f 95/4/72 97/6/72 94/7/73
f 93/1/74 91/3/74 99/6/74
f 85/4/74 99/6/74 87/7/74
f 85/1/70 86/2/70 88/4/70
f 90/6/70 87/3/70 89/5/70
f 91/4/71 100/6/71 96/2/71
f 100/6/71 92/5/71 95/3/71
f 88/1/72 97/6/72 95/4/72
f 97/6/72 98/3/73 94/7/73
f 93/1/74 99/6/74 85/4/74
f 99/6/74 91/3/74 87/7/74
f 86/2/70 90/6/70 88/4/70
f 86/2/70 87/3/70 90/6/70
f 89/5/70 87/3/70 98/7/70
f 88/4/70 89/5/70 98/7/70
f 91/4/71 96/2/71 94/1/71
f 96/2/71 100/6/71 95/3/71
f 92/5/71 93/7/71 95/3/71
f 91/4/71 92/5/71 100/6/71
f 101/8/75 102/10/75 103/9/75
f 104/11/76 103/9/76 105/12/76
f 106/12/77 107/11/77 108/9/77
f 109/10/78 108/9/78 110/8/78
f 109/13/79 110/15/80 101/14/80
f 101/14/80 110/15/80 102/16/80
f 102/12/81 110/11/81 111/9/81
f 105/10/82 111/9/82 107/8/82
f 109/8/83 101/10/83 112/9/83
f 106/11/84 112/9/84 104/12/84
f 101/8/85 103/9/85 104/11/85
f 103/9/86 102/10/86 105/12/86
f 106/12/87 108/9/87 109/10/87
f 108/9/88 107/11/88 110/8/88
f 102/12/89 111/9/89 105/10/89
f 111/9/90 110/11/90 107/8/90
f 109/8/91 112/9/91 106/11/91
f 112/9/92 101/10/92 104/12/92
f 113/17/93 115/18/93 114/19/93
f 116/17/94 118/18/94 117/20/94
f 114/21/95 116/22/95 113/23/95
f 113/24/96 117/25/96 119/26/96
f 115/26/97 120/27/97 114/24/97
f 119/23/98 118/28/98 115/21/98
f 119/20/93 115/18/93 113/17/93
f 120/19/94 118/18/94 116/17/94
f 120/28/95 116/22/95 114/21/95
f 116/27/96 117/25/96 113/24/96
f 118/25/97 120/27/97 115/26/97
f 117/22/98 118/28/98 119/23/98
